<svg width="16" height="16" viewBox="0 0 16 16" fill="none" xmlns="http://www.w3.org/2000/svg">
<path d="M8.95151 8.00823L12.4802 4.47957C12.5439 4.41807 12.5946 4.34451 12.6296 4.26317C12.6645 4.18183 12.6829 4.09435 12.6837 4.00583C12.6844 3.91731 12.6676 3.82953 12.6341 3.7476C12.6005 3.66567 12.551 3.59123 12.4884 3.52864C12.4258 3.46604 12.3514 3.41654 12.2695 3.38302C12.1875 3.3495 12.0998 3.33263 12.0112 3.3334C11.9227 3.33417 11.8352 3.35256 11.7539 3.3875C11.6726 3.42244 11.599 3.47323 11.5375 3.5369L8.00884 7.06557L4.48018 3.5369C4.35444 3.41546 4.18604 3.34826 4.01124 3.34978C3.83644 3.3513 3.66924 3.42142 3.54563 3.54502C3.42203 3.66863 3.35191 3.83583 3.35039 4.01063C3.34887 4.18543 3.41607 4.35383 3.53751 4.47957L7.06618 8.00823L3.53751 11.5369C3.47384 11.5984 3.42305 11.672 3.38811 11.7533C3.35317 11.8346 3.33478 11.9221 3.33401 12.0106C3.33324 12.0992 3.35011 12.1869 3.38363 12.2689C3.41715 12.3508 3.46665 12.4252 3.52925 12.4878C3.59184 12.5504 3.66628 12.5999 3.74821 12.6334C3.83014 12.667 3.91792 12.6838 4.00644 12.6831C4.09496 12.6823 4.18244 12.6639 4.26378 12.629C4.34512 12.594 4.41868 12.5432 4.48018 12.4796L8.00884 8.9509L11.5375 12.4796C11.6632 12.601 11.8316 12.6682 12.0064 12.6667C12.1812 12.6652 12.3485 12.5951 12.4721 12.4714C12.5957 12.3478 12.6658 12.1806 12.6673 12.0058C12.6688 11.831 12.6016 11.6626 12.4802 11.5369L8.95151 8.00823Z" fill="#FE3A30"/>
</svg>
