<svg width="20" height="20" viewBox="0 0 20 20" fill="none" xmlns="http://www.w3.org/2000/svg">
<path d="M15.883 5.83329H4.1183C3.91029 5.83329 3.71079 5.7455 3.5637 5.58921C3.41662 5.43293 3.33398 5.22097 3.33398 4.99996C3.33398 4.77895 3.41662 4.56698 3.5637 4.4107C3.71079 4.25442 3.91029 4.16663 4.1183 4.16663H15.883C16.091 4.16663 16.2905 4.25442 16.4376 4.4107C16.5847 4.56698 16.6673 4.77895 16.6673 4.99996C16.6673 5.22097 16.5847 5.43293 16.4376 5.58921C16.2905 5.7455 16.091 5.83329 15.883 5.83329Z" fill="#3669C9"/>
<path d="M15.883 10.8333H4.1183C3.91029 10.8333 3.71079 10.7455 3.5637 10.5892C3.41662 10.4329 3.33398 10.221 3.33398 9.99996C3.33398 9.77895 3.41662 9.56698 3.5637 9.4107C3.71079 9.25442 3.91029 9.16663 4.1183 9.16663H15.883C16.091 9.16663 16.2905 9.25442 16.4376 9.4107C16.5847 9.56698 16.6673 9.77895 16.6673 9.99996C16.6673 10.221 16.5847 10.4329 16.4376 10.5892C16.2905 10.7455 16.091 10.8333 15.883 10.8333Z" fill="#3669C9"/>
<path d="M15.883 15.8333H4.1183C3.91029 15.8333 3.71079 15.7455 3.5637 15.5892C3.41662 15.4329 3.33398 15.221 3.33398 15C3.33398 14.7789 3.41662 14.567 3.5637 14.4107C3.71079 14.2544 3.91029 14.1666 4.1183 14.1666H15.883C16.091 14.1666 16.2905 14.2544 16.4376 14.4107C16.5847 14.567 16.6673 14.7789 16.6673 15C16.6673 15.221 16.5847 15.4329 16.4376 15.5892C16.2905 15.7455 16.091 15.8333 15.883 15.8333Z" fill="#3669C9"/>
</svg>
