<svg width="12" height="12" viewBox="0 0 12 12" fill="none" xmlns="http://www.w3.org/2000/svg">
<path d="M7.3265 9.5C7.15006 9.49996 6.98085 9.42628 6.85611 9.29515L4.1948 6.49859C4.07007 6.36748 4 6.18968 4 6.0043C4 5.81891 4.07007 5.64111 4.1948 5.51L6.85611 2.71344C6.91748 2.64666 6.9909 2.5934 7.07207 2.55676C7.15324 2.52012 7.24055 2.50083 7.32889 2.50003C7.41723 2.49922 7.50484 2.51691 7.58661 2.55206C7.66838 2.58722 7.74266 2.63913 7.80513 2.70477C7.8676 2.77042 7.917 2.84848 7.95046 2.9344C7.98391 3.02032 8.00074 3.11238 7.99998 3.20522C7.99921 3.29805 7.98085 3.38979 7.94598 3.47509C7.91112 3.56038 7.86043 3.63753 7.79688 3.70202L5.60596 6.0043L7.79688 8.30657C7.8899 8.40434 7.95325 8.5289 7.97891 8.66451C8.00457 8.80011 7.99139 8.94066 7.94105 9.06839C7.8907 9.19612 7.80544 9.3053 7.69606 9.38213C7.58667 9.45895 7.45807 9.49997 7.3265 9.5Z" fill="#EEEEEE"/>
</svg>
