<svg width="16" height="16" viewBox="0 0 16 16" fill="none" xmlns="http://www.w3.org/2000/svg">
<path d="M2.66732 10.3912L3.61598 9.44189C3.20556 9.03936 2.88537 8.5542 2.67665 8.01855C2.91798 7.37189 5.16398 4.66655 8.00065 4.66655C8.12398 4.66655 8.24132 4.68655 8.36132 4.69655L9.51798 3.53989C9.02315 3.40627 8.51319 3.33681 8.00065 3.33322C4.40865 3.33322 1.33398 6.89055 1.33398 7.99989C1.50785 8.92031 1.97573 9.75946 2.66732 10.3912Z" fill="#929AAB"/>
<path fill-rule="evenodd" clip-rule="evenodd" d="M2.29699 13.8875C2.4066 13.9607 2.53546 13.9999 2.6673 13.9999C2.84409 13.9999 3.01364 13.9296 3.13863 13.8046L6.64621 10.297C7.05578 10.5385 7.52337 10.6666 8.00065 10.6666C8.7079 10.6666 9.38617 10.3856 9.88627 9.88551C10.3864 9.38541 10.6673 8.70713 10.6673 7.99989C10.6673 7.5226 10.5392 7.05502 10.2977 6.64545L13.8053 3.13789C13.869 3.07639 13.9198 3.00283 13.9547 2.92149C13.9896 2.84016 14.008 2.75268 14.0088 2.66416C14.0096 2.57564 13.9927 2.48785 13.9592 2.40592C13.9257 2.32399 13.8762 2.24956 13.8136 2.18696C13.751 2.12437 13.6765 2.07486 13.5946 2.04134C13.5127 2.00782 13.4249 1.99096 13.3364 1.99172C13.2478 1.99249 13.1604 2.01088 13.079 2.04582C12.9977 2.08076 12.9241 2.13155 12.8626 2.19522L9.35507 5.70279C9.24821 5.63978 9.13666 5.58406 9.02114 5.53621C8.53387 5.33438 7.99769 5.28157 7.48041 5.38446C6.96313 5.48736 6.48797 5.74133 6.11503 6.11427C5.74209 6.48721 5.48812 6.96237 5.38522 7.47965C5.28233 7.99693 5.33514 8.53311 5.53697 9.02038C5.58482 9.1359 5.64054 9.24744 5.70355 9.35431L2.19596 12.8619C2.10276 12.9551 2.03929 13.0739 2.01358 13.2032C1.98786 13.3325 2.00107 13.4665 2.05151 13.5883C2.10196 13.7101 2.18739 13.8142 2.29699 13.8875ZM7.65543 9.28776C7.68351 9.29528 7.71189 9.30191 7.74053 9.3076C7.99917 9.35905 8.26726 9.33265 8.5109 9.23173C8.75453 9.13081 8.96277 8.95992 9.10928 8.74065C9.25579 8.52138 9.33399 8.2636 9.33399 7.99989C9.33399 7.8823 9.31845 7.76631 9.28852 7.65467L7.65543 9.28776ZM8.34584 6.71201L6.71278 8.34508C6.70525 8.31701 6.69863 8.28864 6.69294 8.26001C6.64149 8.00137 6.6679 7.73328 6.76881 7.48965C6.86973 7.24601 7.04063 7.03777 7.25989 6.89126C7.47916 6.74475 7.73694 6.66656 8.00065 6.66656C8.11823 6.66656 8.23421 6.68209 8.34584 6.71201Z" fill="#929AAB"/>
<path d="M13.2147 5.72856L12.2673 6.67322C12.6925 7.05972 13.0491 7.51551 13.322 8.02122C12.8472 9.0264 12.0928 9.87342 11.149 10.4608C10.2053 11.0482 9.11215 11.3511 8.00065 11.3332C7.87198 11.3332 7.74865 11.3252 7.62532 11.3186L6.44398 12.4992C6.95557 12.6094 7.47733 12.6655 8.00065 12.6666C12.3027 12.6666 14.6673 9.16122 14.6673 7.99989C14.6673 7.22255 13.576 6.08389 13.2147 5.72856Z" fill="#929AAB"/>
</svg>
