<svg width="16" height="16" viewBox="0 0 16 16" fill="none" xmlns="http://www.w3.org/2000/svg">
<path d="M7.99922 1.33325C7.0269 1.3323 6.07286 1.59744 5.24046 2.09995C4.40805 2.60245 3.72903 3.32316 3.27695 4.18399C2.82486 5.04482 2.61696 6.01295 2.67577 6.98349C2.73458 7.95403 3.05784 8.88997 3.61055 9.68992C3.63268 9.73339 3.65951 9.7743 3.69055 9.81192L3.77055 9.90925C3.84522 10.0059 3.92189 10.0993 3.98789 10.1759L7.48455 14.4253C7.54725 14.5009 7.6259 14.5618 7.71488 14.6035C7.80385 14.6452 7.90095 14.6668 7.99922 14.6666C8.09776 14.6666 8.19509 14.6448 8.2842 14.6028C8.37331 14.5607 8.45198 14.4994 8.51455 14.4233L11.9092 10.2866C12.0467 10.1387 12.1754 9.98291 12.2946 9.81992L12.3792 9.71659C12.4115 9.67741 12.4388 9.63443 12.4606 9.58859C12.9874 8.78415 13.2869 7.85224 13.3275 6.89149C13.368 5.93075 13.1481 4.97691 12.6909 4.13094C12.2337 3.28497 11.5563 2.57834 10.7304 2.08585C9.90452 1.59335 8.96082 1.33331 7.99922 1.33325ZM7.99922 4.66659C8.39478 4.66659 8.78146 4.78389 9.11036 5.00365C9.43926 5.22341 9.69561 5.53577 9.84698 5.90122C9.99836 6.26667 10.038 6.66881 9.96079 7.05677C9.88362 7.44473 9.69314 7.8011 9.41343 8.0808C9.13373 8.36051 8.77736 8.55099 8.3894 8.62816C8.00144 8.70533 7.59931 8.66572 7.23385 8.51435C6.8684 8.36297 6.55604 8.10663 6.33628 7.77773C6.11652 7.44883 5.99922 7.06215 5.99922 6.66659C5.99922 6.13615 6.20993 5.62745 6.58501 5.25237C6.96008 4.8773 7.46879 4.66659 7.99922 4.66659Z" fill="#929AAB"/>
</svg>
