<svg width="10" height="10" viewBox="0 0 10 10" fill="none" xmlns="http://www.w3.org/2000/svg">
<path d="M5.00782 6.66683C4.85312 6.6668 4.70477 6.60837 4.5954 6.50438L2.26207 4.2867C2.20635 4.23556 2.16192 4.17438 2.13134 4.10674C2.10077 4.0391 2.08468 3.96635 2.08401 3.89273C2.08333 3.81912 2.09809 3.74611 2.12742 3.67798C2.15675 3.60984 2.20007 3.54794 2.25484 3.49588C2.30961 3.44383 2.37474 3.40266 2.44643 3.37478C2.51812 3.34691 2.59493 3.33288 2.67239 3.33352C2.74984 3.33416 2.82639 3.34945 2.89755 3.37851C2.96872 3.40756 3.03309 3.4498 3.0869 3.50275L5.00782 5.32846L6.92874 3.50275C7.03875 3.40176 7.1861 3.34588 7.33905 3.34714C7.492 3.34841 7.63831 3.40671 7.74646 3.50951C7.85462 3.6123 7.91597 3.75136 7.9173 3.89672C7.91862 4.04209 7.85983 4.18214 7.75357 4.2867L5.42024 6.50438C5.31086 6.60837 5.16252 6.6668 5.00782 6.66683Z" fill="#6B7280"/>
</svg>
