<svg width="16" height="16" viewBox="0 0 16 16" fill="none" xmlns="http://www.w3.org/2000/svg">
<path d="M7.69671 10.0445L7.69677 10.0445C7.77624 10.1201 7.88921 10.1668 8.01202 10.1668L7.69671 10.0445ZM7.69671 10.0445L3.96338 6.49621L3.96343 6.49615M7.69671 10.0445L3.96343 6.49615M3.96343 6.49615L3.95704 6.49029M3.96343 6.49615L3.95704 6.49029M3.95704 6.49029C3.91667 6.45323 3.88596 6.41029 3.86538 6.36476C3.84484 6.3193 3.83444 6.27143 3.834 6.22371C3.83356 6.17599 3.84309 6.12802 3.86274 6.08236C3.88243 6.03663 3.91225 5.99333 3.95181 5.95574C3.99142 5.91808 4.03992 5.88702 4.09511 5.86556C4.15032 5.84409 4.21029 5.83301 4.2713 5.83351C4.33231 5.83402 4.392 5.84609 4.4467 5.86842C4.50137 5.89074 4.54916 5.92252 4.58795 5.96069L4.5879 5.96075M3.95704 6.49029L4.5879 5.96075M4.5879 5.96075L4.5942 5.96673M4.5879 5.96075L4.5942 5.96673M4.5942 5.96673L7.66766 8.88786L8.01212 9.21524M4.5942 5.96673L8.01212 9.21524M8.01212 9.21524L8.35658 8.88786M8.01212 9.21524L8.35658 8.88786M8.35658 8.88786L11.4263 5.9703C11.5064 5.89802 11.6178 5.85432 11.738 5.85531C11.8594 5.85632 11.9709 5.90281 12.0495 5.97754C12.1273 6.05148 12.1665 6.14604 12.1673 6.23923C12.1681 6.33138 12.1316 6.42524 12.0571 6.49979L8.32753 10.0445L8.32747 10.0445M8.35658 8.88786L8.32747 10.0445M8.32747 10.0445C8.248 10.1201 8.13503 10.1668 8.01222 10.1668L8.32747 10.0445Z" fill="#929AAB" stroke="#929AAB"/>
</svg>
