<svg width="16" height="16" viewBox="0 0 16 16" fill="none" xmlns="http://www.w3.org/2000/svg">
<path d="M8.00065 10.6668C7.47323 10.6668 6.95766 10.5104 6.51913 10.2174C6.0806 9.9244 5.73881 9.50792 5.53697 9.02065C5.33514 8.53338 5.28233 7.9972 5.38522 7.47992C5.48812 6.96264 5.74209 6.48748 6.11503 6.11454C6.48797 5.7416 6.96313 5.48763 7.48041 5.38473C7.99769 5.28184 8.53387 5.33465 9.02114 5.53648C9.50841 5.73832 9.92489 6.08011 10.2179 6.51864C10.5109 6.95717 10.6673 7.47275 10.6673 8.00016C10.6673 8.70741 10.3864 9.38568 9.88627 9.88578C9.38617 10.3859 8.70789 10.6668 8.00065 10.6668ZM8.00065 6.66683C7.73694 6.66683 7.47916 6.74503 7.25989 6.89154C7.04063 7.03804 6.86973 7.24628 6.76881 7.48992C6.66789 7.73355 6.64149 8.00164 6.69294 8.26028C6.74438 8.51892 6.87137 8.7565 7.05784 8.94297C7.24431 9.12944 7.48189 9.25643 7.74053 9.30788C7.99917 9.35932 8.26726 9.33292 8.51089 9.232C8.75453 9.13108 8.96277 8.96019 9.10928 8.74092C9.25578 8.52166 9.33398 8.26387 9.33398 8.00016C9.33398 7.64654 9.19351 7.3074 8.94346 7.05735C8.69341 6.80731 8.35427 6.66683 8.00065 6.66683Z" fill="#929AAB"/>
<path d="M8.00065 12.6668C3.69798 12.6668 1.33398 9.1615 1.33398 8.00016C1.33398 6.89083 4.40865 3.3335 8.00065 3.3335C11.5927 3.3335 14.6673 6.89083 14.6673 8.00016C14.6673 9.1615 12.3033 12.6668 8.00065 12.6668ZM2.67598 8.01883C3.1503 9.02524 3.90503 9.87334 4.84955 10.4613C5.79407 11.0493 6.88823 11.3521 8.00065 11.3335C9.11307 11.3521 10.2072 11.0493 11.1518 10.4613C12.0963 9.87334 12.851 9.02524 13.3253 8.01883C13.0833 7.37216 10.8373 4.66683 8.00065 4.66683C5.16398 4.66683 2.91798 7.37216 2.67598 8.01883Z" fill="#929AAB"/>
</svg>
