<svg width="16" height="16" viewBox="0 0 16 16" fill="none" xmlns="http://www.w3.org/2000/svg">
<path d="M13.334 2.6665H2.66732C2.3137 2.6665 1.97456 2.80698 1.72451 3.05703C1.47446 3.30708 1.33398 3.64622 1.33398 3.99984V11.9998C1.33398 12.3535 1.47446 12.6926 1.72451 12.9426C1.97456 13.1927 2.3137 13.3332 2.66732 13.3332H13.334C13.6876 13.3332 14.0267 13.1927 14.2768 12.9426C14.5268 12.6926 14.6673 12.3535 14.6673 11.9998V3.99984C14.6673 3.64622 14.5268 3.30708 14.2768 3.05703C14.0267 2.80698 13.6876 2.6665 13.334 2.6665ZM5.66732 4.6665C5.99695 4.6665 6.31919 4.76425 6.59327 4.94739C6.86735 5.13052 7.08097 5.39082 7.20712 5.69536C7.33326 5.99991 7.36627 6.33502 7.30196 6.65832C7.23765 6.98162 7.07892 7.27859 6.84583 7.51168C6.61274 7.74477 6.31577 7.9035 5.99247 7.96781C5.66917 8.03212 5.33406 7.99912 5.02951 7.87297C4.72497 7.74682 4.46467 7.5332 4.28153 7.25912C4.0984 6.98504 4.00065 6.66281 4.00065 6.33317C4.00065 5.89114 4.17625 5.46722 4.48881 5.15466C4.80137 4.8421 5.22529 4.6665 5.66732 4.6665ZM3.34332 11.3472L3.44798 10.9305C3.54126 10.4075 3.81386 9.93339 4.21891 9.58967C4.62396 9.24594 5.13613 9.05411 5.66732 9.04717C6.19583 9.05447 6.70545 9.24485 7.1093 9.58585C7.51315 9.92685 7.78623 10.3974 7.88198 10.9172L7.98798 11.3318L3.34332 11.3472ZM12.0007 10.6665H10.0007C9.82384 10.6665 9.65427 10.5963 9.52925 10.4712C9.40422 10.3462 9.33398 10.1766 9.33398 9.99984C9.33398 9.82303 9.40422 9.65346 9.52925 9.52843C9.65427 9.40341 9.82384 9.33317 10.0007 9.33317H12.0007C12.1775 9.33317 12.347 9.40341 12.4721 9.52843C12.5971 9.65346 12.6673 9.82303 12.6673 9.99984C12.6673 10.1766 12.5971 10.3462 12.4721 10.4712C12.347 10.5963 12.1775 10.6665 12.0007 10.6665ZM12.0007 8.6665H10.0007C9.82384 8.6665 9.65427 8.59627 9.52925 8.47124C9.40422 8.34622 9.33398 8.17665 9.33398 7.99984C9.33398 7.82303 9.40422 7.65346 9.52925 7.52843C9.65427 7.40341 9.82384 7.33317 10.0007 7.33317H12.0007C12.1775 7.33317 12.347 7.40341 12.4721 7.52843C12.5971 7.65346 12.6673 7.82303 12.6673 7.99984C12.6673 8.17665 12.5971 8.34622 12.4721 8.47124C12.347 8.59627 12.1775 8.6665 12.0007 8.6665ZM12.0007 6.6665H10.0007C9.82384 6.6665 9.65427 6.59627 9.52925 6.47124C9.40422 6.34622 9.33398 6.17665 9.33398 5.99984C9.33398 5.82303 9.40422 5.65346 9.52925 5.52843C9.65427 5.40341 9.82384 5.33317 10.0007 5.33317H12.0007C12.1775 5.33317 12.347 5.40341 12.4721 5.52843C12.5971 5.65346 12.6673 5.82303 12.6673 5.99984C12.6673 6.17665 12.5971 6.34622 12.4721 6.47124C12.347 6.59627 12.1775 6.6665 12.0007 6.6665Z" fill="#929AAB"/>
</svg>
