<svg width="20" height="20" viewBox="0 0 20 20" fill="none" xmlns="http://www.w3.org/2000/svg">
<path d="M10.9368 3.91653L16.4368 9.41653C16.5202 9.49987 16.5793 9.59015 16.6143 9.68737C16.6493 9.78459 16.6666 9.88876 16.666 9.99987C16.666 10.111 16.6485 10.2151 16.6135 10.3124C16.5785 10.4096 16.5196 10.4999 16.4368 10.5832L10.9368 16.0832C10.7841 16.236 10.5929 16.3157 10.3635 16.3224C10.1341 16.329 9.93628 16.2493 9.77017 16.0832C9.6035 15.9304 9.51656 15.7393 9.50934 15.5099C9.50211 15.2804 9.58211 15.0826 9.74934 14.9165L13.8327 10.8332L4.52017 10.8332C4.28406 10.8332 4.086 10.7532 3.926 10.5932C3.766 10.4332 3.68628 10.2354 3.68684 9.99987C3.68684 9.76376 3.76656 9.5657 3.926 9.4057C4.08545 9.2457 4.2835 9.16598 4.52017 9.16653L13.8327 9.16653L9.74934 5.0832C9.59656 4.93042 9.51656 4.73598 9.50934 4.49987C9.50211 4.26376 9.58212 4.06931 9.74934 3.91653C9.90212 3.74987 10.0966 3.66653 10.3327 3.66653C10.5688 3.66653 10.7702 3.74987 10.9368 3.91653Z" fill="#EBEFF3"/>
</svg>
