<svg width="10" height="10" viewBox="0 0 10 10" fill="none" xmlns="http://www.w3.org/2000/svg">
<path d="M7.88824 5.6665V7.8145C7.8883 7.88263 7.87492 7.9501 7.84888 8.01306C7.82283 8.07601 7.78463 8.13321 7.73645 8.18139C7.68828 8.22956 7.63108 8.26776 7.56813 8.29381C7.50517 8.31985 7.4377 8.33323 7.36957 8.33317H2.18468C2.11655 8.33323 2.04908 8.31985 1.98613 8.29381C1.92317 8.26776 1.86597 8.22956 1.8178 8.18139C1.76963 8.13321 1.73142 8.07601 1.70538 8.01306C1.67933 7.9501 1.66596 7.88263 1.66602 7.8145V2.62961C1.66596 2.56149 1.67933 2.49401 1.70538 2.43106C1.73142 2.36811 1.76963 2.31091 1.8178 2.26273C1.86597 2.21456 1.92317 2.17636 1.98613 2.15031C2.04908 2.12427 2.11655 2.11089 2.18468 2.11095H4.23713M5.76913 1.6665H8.33268V4.23006M4.82646 5.17273L8.28335 1.71584" stroke="#1A56DB" stroke-linecap="round" stroke-linejoin="round"/>
</svg>
