<svg width="20" height="20" viewBox="0 0 20 20" fill="none" xmlns="http://www.w3.org/2000/svg">
<path d="M9.06316 16.0835L3.56316 10.5835C3.47983 10.5001 3.42066 10.4099 3.38566 10.3126C3.35066 10.2154 3.33344 10.1112 3.334 10.0001C3.334 9.88902 3.3515 9.78485 3.3865 9.68763C3.4215 9.59041 3.48039 9.50013 3.56316 9.4168L9.06316 3.9168C9.21594 3.76402 9.40705 3.6843 9.6365 3.67763C9.86594 3.67097 10.0637 3.75069 10.2298 3.9168C10.3965 4.06958 10.4834 4.26069 10.4907 4.49013C10.4979 4.71958 10.4179 4.91735 10.2507 5.08347L6.16733 9.1668L15.4798 9.1668C15.7159 9.1668 15.914 9.2468 16.074 9.4068C16.234 9.5668 16.3137 9.76458 16.3132 10.0001C16.3132 10.2362 16.2334 10.4343 16.074 10.5943C15.9146 10.7543 15.7165 10.834 15.4798 10.8335L6.16733 10.8335L10.2507 14.9168C10.4034 15.0696 10.4834 15.264 10.4907 15.5001C10.4979 15.7362 10.4179 15.9307 10.2507 16.0835C10.0979 16.2501 9.90344 16.3335 9.66733 16.3335C9.43122 16.3335 9.22983 16.2501 9.06316 16.0835Z" fill="#EBEFF3"/>
</svg>
