<svg width="14" height="14" viewBox="0 0 14 14" fill="none" xmlns="http://www.w3.org/2000/svg">
<path d="M11.6667 3.62283H9.33333V2.39476C9.33333 2.06905 9.21042 1.75669 8.99162 1.52638C8.77283 1.29607 8.47609 1.16669 8.16667 1.16669H5.83333C5.52391 1.16669 5.22717 1.29607 5.00838 1.52638C4.78958 1.75669 4.66667 2.06905 4.66667 2.39476V3.62283H2.33333C2.17862 3.62283 2.03025 3.68752 1.92085 3.80267C1.81146 3.91783 1.75 4.07401 1.75 4.23686C1.75 4.39971 1.81146 4.5559 1.92085 4.67105C2.03025 4.7862 2.17862 4.8509 2.33333 4.8509H2.91667V11.6053C2.91667 11.931 3.03958 12.2434 3.25838 12.4737C3.47717 12.704 3.77391 12.8334 4.08333 12.8334H9.91667C10.2261 12.8334 10.5228 12.704 10.7416 12.4737C10.9604 12.2434 11.0833 11.931 11.0833 11.6053V4.8509H11.6667C11.8214 4.8509 11.9697 4.7862 12.0791 4.67105C12.1885 4.5559 12.25 4.39971 12.25 4.23686C12.25 4.07401 12.1885 3.91783 12.0791 3.80267C11.9697 3.68752 11.8214 3.62283 11.6667 3.62283ZM5.83333 2.39476H8.16667V3.62283H5.83333V2.39476ZM9.91667 11.6053H4.08333V4.8509H9.91667V11.6053Z" fill="#24282D"/>
<path d="M5.83333 5.46493C5.67862 5.46493 5.53025 5.52963 5.42085 5.64478C5.31146 5.75993 5.25 5.91612 5.25 6.07897V10.3772C5.25 10.5401 5.31146 10.6962 5.42085 10.8114C5.53025 10.9266 5.67862 10.9912 5.83333 10.9912C5.98804 10.9912 6.13642 10.9266 6.24581 10.8114C6.35521 10.6962 6.41667 10.5401 6.41667 10.3772V6.07897C6.41667 5.91612 6.35521 5.75993 6.24581 5.64478C6.13642 5.52963 5.98804 5.46493 5.83333 5.46493Z" fill="#24282D"/>
<path d="M8.16667 5.46493C8.01196 5.46493 7.86358 5.52963 7.75419 5.64478C7.64479 5.75993 7.58333 5.91612 7.58333 6.07897V10.3772C7.58333 10.5401 7.64479 10.6962 7.75419 10.8114C7.86358 10.9266 8.01196 10.9912 8.16667 10.9912C8.32138 10.9912 8.46975 10.9266 8.57915 10.8114C8.68854 10.6962 8.75 10.5401 8.75 10.3772V6.07897C8.75 5.91612 8.68854 5.75993 8.57915 5.64478C8.46975 5.52963 8.32138 5.46493 8.16667 5.46493Z" fill="#24282D"/>
</svg>
