<svg width="16" height="16" viewBox="0 0 16 16" fill="none" xmlns="http://www.w3.org/2000/svg">
<path d="M10.7807 6.66902L10.7811 6.66942C10.8138 6.70291 10.8344 6.75099 10.8345 6.80374C10.8346 6.8564 10.8142 6.90449 10.7816 6.93809C10.7816 6.93815 10.7815 6.93821 10.7814 6.93827L8.11532 9.67275L8.11488 9.6732C8.09879 9.68974 8.08038 9.70216 8.06103 9.7104C8.0417 9.71862 8.02145 9.72268 8.00132 9.72268C7.98118 9.72268 7.96093 9.71862 7.94161 9.7104C7.92226 9.70216 7.90384 9.68974 7.88776 9.6732L7.88732 9.67275L5.22065 6.93771L5.22071 6.93765L5.21453 6.93154C5.19804 6.9152 5.18419 6.89496 5.17443 6.87165C5.16466 6.84833 5.15935 6.82279 5.15913 6.79664C5.15891 6.77049 5.16379 6.74483 5.17318 6.72128C5.18257 6.69774 5.19611 6.67719 5.21239 6.66049C5.22864 6.64383 5.24726 6.63135 5.26682 6.62315L5.07335 6.16209L5.26682 6.62314C5.28634 6.61495 5.3068 6.611 5.32713 6.61118C5.34746 6.61136 5.36788 6.61568 5.38733 6.62424C5.4068 6.63283 5.42528 6.64568 5.44131 6.6627L5.44126 6.66275L5.44732 6.66897L6.97598 8.23683L7.83398 9.11683V7.88778V2.01701C7.83398 1.96425 7.85454 1.91612 7.88725 1.88257C7.91953 1.84946 7.96059 1.83325 8.00065 1.83325C8.04071 1.83325 8.08177 1.84946 8.11405 1.88257L8.46872 1.53677L8.11406 1.88257C8.14676 1.91612 8.16732 1.96425 8.16732 2.01701V7.88778V9.11683L9.02532 8.23683L10.5539 6.66902C10.5539 6.669 10.554 6.66899 10.554 6.66897C10.5863 6.6359 10.6273 6.61972 10.6673 6.61972C10.7074 6.61972 10.7484 6.63592 10.7807 6.66902ZM11.8448 9.6965H13.334C13.5509 9.6965 13.7615 9.78474 13.9188 9.94609C14.0765 10.1079 14.1673 10.3299 14.1673 10.564V13.2991C14.1673 13.5332 14.0765 13.7552 13.9188 13.917C13.7615 14.0783 13.5509 14.1666 13.334 14.1666H2.66732C2.45045 14.1666 2.23982 14.0783 2.08251 13.917C1.92478 13.7552 1.83398 13.5332 1.83398 13.2991V10.564C1.83398 10.3299 1.92478 10.1079 2.08251 9.94609C2.23982 9.78474 2.45045 9.6965 2.66732 9.6965H4.15649L5.99263 11.5797C5.99264 11.5797 5.99264 11.5797 5.99265 11.5797C6.25515 11.849 6.56748 12.0633 6.91215 12.2097C7.25685 12.3562 7.62677 12.4317 8.00065 12.4317C8.37454 12.4317 8.74445 12.3562 9.08915 12.2097C9.43382 12.0633 9.74615 11.849 10.0087 11.5797C10.0087 11.5797 10.0087 11.5797 10.0087 11.5797L11.8448 9.6965ZM10.8291 13.5387C11.0761 13.7079 11.3678 13.7991 11.6673 13.7991C12.0693 13.7991 12.4522 13.6352 12.7324 13.3477C13.0123 13.0607 13.1673 12.674 13.1673 12.2734C13.1673 11.9745 13.0809 11.6812 12.9177 11.4307C12.7544 11.18 12.521 10.9827 12.2455 10.8657C11.9699 10.7486 11.6658 10.7177 11.3723 10.7776C11.0789 10.8374 10.8111 10.9849 10.6022 11.1991C10.3934 11.4133 10.2526 11.6846 10.1957 11.9781C10.1388 12.2716 10.1679 12.5759 10.2798 12.8532C10.3918 13.1305 10.5823 13.3695 10.8291 13.5387Z" fill="#929AAB" stroke="#929AAB"/>
</svg>
