<svg width="16" height="16" viewBox="0 0 16 16" fill="none" xmlns="http://www.w3.org/2000/svg">
<path d="M11.9993 6.2H10.9993V4.7C10.9993 3.98392 10.6833 3.29716 10.1207 2.79081C9.55806 2.28446 8.795 2 7.99935 2C7.2037 2 6.44064 2.28446 5.87803 2.79081C5.31542 3.29716 4.99935 3.98392 4.99935 4.7V6.2H3.99935C3.64573 6.2 3.30659 6.32643 3.05654 6.55147C2.80649 6.77652 2.66602 7.08174 2.66602 7.4V12.8C2.66602 13.1183 2.80649 13.4235 3.05654 13.6485C3.30659 13.8736 3.64573 14 3.99935 14H11.9993C12.353 14 12.6921 13.8736 12.9422 13.6485C13.1922 13.4235 13.3327 13.1183 13.3327 12.8V7.4C13.3327 7.08174 13.1922 6.77652 12.9422 6.55147C12.6921 6.32643 12.353 6.2 11.9993 6.2ZM8.66602 11C8.66602 11.1591 8.59578 11.3117 8.47075 11.4243C8.34573 11.5368 8.17616 11.6 7.99935 11.6C7.82254 11.6 7.65297 11.5368 7.52794 11.4243C7.40292 11.3117 7.33268 11.1591 7.33268 11V9.2C7.33268 9.04087 7.40292 8.88826 7.52794 8.77574C7.65297 8.66321 7.82254 8.6 7.99935 8.6C8.17616 8.6 8.34573 8.66321 8.47075 8.77574C8.59578 8.88826 8.66602 9.04087 8.66602 9.2V11ZM9.66602 6.2H6.33268V4.7C6.33268 4.30218 6.50828 3.92064 6.82084 3.63934C7.1334 3.35804 7.55732 3.2 7.99935 3.2C8.44138 3.2 8.8653 3.35804 9.17786 3.63934C9.49042 3.92064 9.66602 4.30218 9.66602 4.7V6.2Z" fill="#929AAB"/>
</svg>
