<svg width="16" height="16" viewBox="0 0 16 16" fill="none" xmlns="http://www.w3.org/2000/svg">
<path d="M10.7314 4.49139C10.7314 5.94861 9.51963 7.14929 8.00065 7.14929C6.48167 7.14929 5.26988 5.94861 5.26988 4.49139C5.26988 3.03417 6.48167 1.8335 8.00065 1.8335C9.51963 1.8335 10.7314 3.03417 10.7314 4.49139ZM6.92393 8.85104C6.92406 8.85104 6.92419 8.85104 6.92431 8.85104H9.07699C9.07712 8.85104 9.07725 8.85104 9.07738 8.85104C9.90017 8.8521 10.6867 9.17216 11.2652 9.73753C11.8433 10.3026 12.1663 11.0663 12.1673 11.8604V13.9651C12.1673 14.0149 12.1472 14.065 12.1075 14.1037C12.0675 14.1429 12.0108 14.1668 11.9494 14.1668H4.05193C3.99049 14.1668 3.93381 14.1429 3.89377 14.1037C3.85411 14.065 3.83398 14.0149 3.83398 13.9651V11.8601C3.83504 11.0661 4.1581 10.3025 4.73615 9.73753C5.31457 9.17216 6.10113 8.8521 6.92393 8.85104Z" fill="#929AAB" stroke="#929AAB"/>
</svg>
