<svg width="16" height="16" viewBox="0 0 16 16" fill="none" xmlns="http://www.w3.org/2000/svg">
<path d="M7.99935 4.4C8.73573 4.4 9.33268 3.86274 9.33268 3.2C9.33268 2.53726 8.73573 2 7.99935 2C7.26297 2 6.66602 2.53726 6.66602 3.2C6.66602 3.86274 7.26297 4.4 7.99935 4.4Z" fill="#24282D"/>
<path d="M7.99935 9.2C8.73573 9.2 9.33268 8.66274 9.33268 8C9.33268 7.33726 8.73573 6.8 7.99935 6.8C7.26297 6.8 6.66602 7.33726 6.66602 8C6.66602 8.66274 7.26297 9.2 7.99935 9.2Z" fill="#24282D"/>
<path d="M7.99935 14C8.73573 14 9.33268 13.4627 9.33268 12.8C9.33268 12.1373 8.73573 11.6 7.99935 11.6C7.26297 11.6 6.66602 12.1373 6.66602 12.8C6.66602 13.4627 7.26297 14 7.99935 14Z" fill="#24282D"/>
</svg>
