<svg width="16" height="16" viewBox="0 0 16 16" fill="none" xmlns="http://www.w3.org/2000/svg">
<path d="M5.99935 4.4C6.73573 4.4 7.33268 3.86274 7.33268 3.2C7.33268 2.53726 6.73573 2 5.99935 2C5.26297 2 4.66602 2.53726 4.66602 3.2C4.66602 3.86274 5.26297 4.4 5.99935 4.4Z" fill="#929AAB"/>
<path d="M5.99935 9.2C6.73573 9.2 7.33268 8.66274 7.33268 8C7.33268 7.33726 6.73573 6.8 5.99935 6.8C5.26297 6.8 4.66602 7.33726 4.66602 8C4.66602 8.66274 5.26297 9.2 5.99935 9.2Z" fill="#929AAB"/>
<path d="M5.99935 14C6.73573 14 7.33268 13.4627 7.33268 12.8C7.33268 12.1373 6.73573 11.6 5.99935 11.6C5.26297 11.6 4.66602 12.1373 4.66602 12.8C4.66602 13.4627 5.26297 14 5.99935 14Z" fill="#929AAB"/>
<path d="M9.99935 4.4C10.7357 4.4 11.3327 3.86274 11.3327 3.2C11.3327 2.53726 10.7357 2 9.99935 2C9.26297 2 8.66602 2.53726 8.66602 3.2C8.66602 3.86274 9.26297 4.4 9.99935 4.4Z" fill="#929AAB"/>
<path d="M9.99935 9.2C10.7357 9.2 11.3327 8.66274 11.3327 8C11.3327 7.33726 10.7357 6.8 9.99935 6.8C9.26297 6.8 8.66602 7.33726 8.66602 8C8.66602 8.66274 9.26297 9.2 9.99935 9.2Z" fill="#929AAB"/>
<path d="M9.99935 14C10.7357 14 11.3327 13.4627 11.3327 12.8C11.3327 12.1373 10.7357 11.6 9.99935 11.6C9.26297 11.6 8.66602 12.1373 8.66602 12.8C8.66602 13.4627 9.26297 14 9.99935 14Z" fill="#929AAB"/>
</svg>
