<svg width="8" height="8" viewBox="0 0 8 8" fill="none" xmlns="http://www.w3.org/2000/svg">
<path d="M5.86668 5.32796C5.74307 5.32794 5.62453 5.28119 5.53714 5.198L4.00226 3.73739L2.46738 5.198C2.42439 5.24037 2.37295 5.27416 2.31609 5.2974C2.25922 5.32065 2.19806 5.33289 2.13617 5.3334C2.07428 5.33391 2.0129 5.32269 1.95562 5.30038C1.89834 5.27808 1.8463 5.24515 1.80253 5.2035C1.75877 5.16185 1.72416 5.11233 1.70072 5.05782C1.67729 5.00331 1.6655 4.9449 1.66603 4.88601C1.66657 4.82711 1.67943 4.76891 1.70386 4.7148C1.72829 4.66068 1.76379 4.61174 1.80831 4.57082L3.67273 2.79661C3.76013 2.71346 3.87867 2.66675 4.00226 2.66675C4.12586 2.66675 4.24439 2.71346 4.3318 2.79661L6.19621 4.57082C6.26138 4.63285 6.30576 4.71188 6.32373 4.79791C6.34171 4.88393 6.33248 4.9731 6.29721 5.05414C6.26194 5.13518 6.20221 5.20444 6.12558 5.25318C6.04895 5.30192 5.95885 5.32795 5.86668 5.32796Z" fill="#6B7280"/>
</svg>
