<svg width="16" height="16" viewBox="0 0 16 16" fill="none" xmlns="http://www.w3.org/2000/svg">
<path d="M8.00065 1.33325C4.32465 1.33325 1.33398 4.32392 1.33398 7.99992C1.33398 11.6759 4.32465 14.6666 8.00065 14.6666C11.6767 14.6666 14.6673 11.6759 14.6673 7.99992C14.6673 4.32392 11.6767 1.33325 8.00065 1.33325ZM10.334 4.66659C10.886 4.66659 11.334 5.11459 11.334 5.66659C11.334 6.21859 10.886 6.66659 10.334 6.66659C9.78198 6.66659 9.33398 6.21859 9.33398 5.66659C9.33398 5.11459 9.78198 4.66659 10.334 4.66659ZM5.66732 4.66659C6.21932 4.66659 6.66732 5.11459 6.66732 5.66659C6.66732 6.21859 6.21932 6.66659 5.66732 6.66659C5.11532 6.66659 4.66732 6.21859 4.66732 5.66659C4.66732 5.11459 5.11532 4.66659 5.66732 4.66659ZM8.00065 11.9999C5.96932 11.9999 4.33398 10.1766 4.33398 8.66659C4.33398 8.48259 4.48332 8.33325 4.66732 8.33325C4.85132 8.33325 5.00065 8.48259 5.00065 8.66659C5.12865 8.79459 6.25798 9.05525 8.00065 9.05525C9.69932 9.05525 10.8147 8.80792 11.004 8.62192C11.0073 8.59725 11.0133 8.57392 11.0213 8.55192C11.0467 8.39925 11.1767 8.30392 11.3413 8.30392C11.5253 8.30392 11.6667 8.48325 11.6667 8.66725C11.6673 10.1766 10.032 11.9999 8.00065 11.9999Z" fill="#929AAB"/>
</svg>
