<svg width="16" height="16" viewBox="0 0 16 16" fill="none" xmlns="http://www.w3.org/2000/svg">
<path d="M8.00065 8.56887L14.184 3.62719C13.9466 3.43891 13.6455 3.3349 13.334 3.3335H2.66732C2.35577 3.3349 2.05475 3.43891 1.81732 3.62719L8.00065 8.56887Z" fill="#929AAB"/>
<path d="M8.83398 9.54141C8.59135 9.71462 8.29479 9.80922 7.98932 9.81083C7.70465 9.81137 7.42755 9.72531 7.19998 9.56567L1.33398 4.8791V11.4224C1.33398 11.7524 1.47446 12.069 1.72451 12.3023C1.97456 12.5357 2.3137 12.6668 2.66732 12.6668H13.334C13.6876 12.6668 14.0267 12.5357 14.2768 12.3023C14.5268 12.069 14.6673 11.7524 14.6673 11.4224V4.8791L8.83398 9.54141Z" fill="#929AAB"/>
</svg>
