<svg width="12" height="12" viewBox="0 0 12 12" fill="none" xmlns="http://www.w3.org/2000/svg">
<path d="M4.6735 9.5C4.54193 9.49997 4.41333 9.45895 4.30394 9.38213C4.19456 9.3053 4.1093 9.19612 4.05895 9.06839C4.00861 8.94066 3.99543 8.80011 4.02109 8.66451C4.04675 8.5289 4.1101 8.40434 4.20312 8.30657L6.39404 6.0043L4.20312 3.70202C4.13957 3.63753 4.08889 3.56038 4.05402 3.47509C4.01915 3.38979 4.00079 3.29805 4.00003 3.20522C3.99926 3.11238 4.01609 3.02032 4.04955 2.9344C4.083 2.84848 4.1324 2.77042 4.19487 2.70477C4.25734 2.63913 4.33162 2.58722 4.41339 2.55206C4.49516 2.51691 4.58277 2.49922 4.67111 2.50003C4.75945 2.50083 4.84676 2.52012 4.92793 2.55676C5.0091 2.5934 5.08252 2.64666 5.14389 2.71344L7.8052 5.51C7.92993 5.64111 8 5.81891 8 6.0043C8 6.18968 7.92993 6.36748 7.8052 6.49859L5.14389 9.29515C5.01915 9.42628 4.84995 9.49996 4.6735 9.5Z" fill="#929AAB"/>
</svg>
