<svg width="16" height="16" viewBox="0 0 16 16" fill="none" xmlns="http://www.w3.org/2000/svg">
<path d="M12.0433 1.33325H7.33268V4.66659C7.33268 5.40192 6.73468 5.99992 5.99935 5.99992H2.66602V13.3333C2.66602 14.0686 3.24402 14.6666 3.95535 14.6666H12.044C12.7547 14.6666 13.3327 14.0686 13.3327 13.3333V2.66659C13.3327 1.93125 12.7547 1.33325 12.0433 1.33325ZM9.66602 5.33325C10.218 5.33325 10.666 5.78125 10.666 6.33325C10.666 6.88525 10.218 7.33325 9.66602 7.33325C9.11402 7.33325 8.66602 6.88525 8.66602 6.33325C8.66602 5.78125 9.11402 5.33325 9.66602 5.33325ZM11.1467 12.3433C11.026 12.5439 10.8093 12.6666 10.5747 12.6666H5.24135C5.01268 12.6666 4.80002 12.5493 4.67735 12.3559C4.55468 12.1626 4.54068 11.9199 4.63935 11.7133L6.39735 8.02592C6.51135 7.78725 6.73935 7.63859 7.02202 7.64659C7.28668 7.65592 7.52135 7.82059 7.61935 8.06725L8.40735 10.0546L8.76802 9.38992C8.88535 9.17459 9.07868 9.03992 9.35668 9.04192C9.60202 9.04259 9.82668 9.17859 9.94268 9.39525L11.164 11.6873C11.2733 11.8933 11.2667 12.1419 11.1467 12.3433Z" fill="#929AAB"/>
<path d="M5.99935 4.66659V1.41992C5.67802 1.51192 5.38002 1.67592 5.13735 1.91925L3.25202 3.80459C3.00935 4.04725 2.84535 4.34525 2.75268 4.66659H5.99935Z" fill="#929AAB"/>
</svg>
