<svg width="16" height="16" viewBox="0 0 16 16" fill="none" xmlns="http://www.w3.org/2000/svg">
<path d="M8 14.6666C6.93946 14.6655 5.92266 14.2438 5.17274 13.4938C4.42283 12.7439 4.00106 11.7271 4 10.6666V5.33325C4 5.15644 4.07024 4.98687 4.19526 4.86185C4.32029 4.73682 4.48986 4.66659 4.66667 4.66659C4.84348 4.66659 5.01305 4.73682 5.13807 4.86185C5.2631 4.98687 5.33333 5.15644 5.33333 5.33325V10.6666C5.33333 11.3738 5.61428 12.0521 6.11438 12.5522C6.61448 13.0523 7.29276 13.3333 8 13.3333C8.70724 13.3333 9.38552 13.0523 9.88562 12.5522C10.3857 12.0521 10.6667 11.3738 10.6667 10.6666V4.33325C10.6667 3.89122 10.4911 3.4673 10.1785 3.15474C9.86595 2.84218 9.44203 2.66659 9 2.66659C8.55797 2.66659 8.13405 2.84218 7.82149 3.15474C7.50893 3.4673 7.33333 3.89122 7.33333 4.33325V9.99992C7.33333 10.1767 7.40357 10.3463 7.5286 10.4713C7.65362 10.5963 7.82319 10.6666 8 10.6666C8.17681 10.6666 8.34638 10.5963 8.4714 10.4713C8.59643 10.3463 8.66667 10.1767 8.66667 9.99992V5.33325C8.66667 5.15644 8.7369 4.98687 8.86193 4.86185C8.98695 4.73682 9.15652 4.66659 9.33333 4.66659C9.51014 4.66659 9.67971 4.73682 9.80474 4.86185C9.92976 4.98687 10 5.15644 10 5.33325V9.99992C10 10.5304 9.78929 11.0391 9.41421 11.4141C9.03914 11.7892 8.53043 11.9999 8 11.9999C7.46957 11.9999 6.96086 11.7892 6.58579 11.4141C6.21071 11.0391 6 10.5304 6 9.99992V4.33325C6 3.5376 6.31607 2.77454 6.87868 2.21193C7.44129 1.64932 8.20435 1.33325 9 1.33325C9.79565 1.33325 10.5587 1.64932 11.1213 2.21193C11.6839 2.77454 12 3.5376 12 4.33325V10.6666C11.9989 11.7271 11.5772 12.7439 10.8273 13.4938C10.0773 14.2438 9.06054 14.6655 8 14.6666Z" fill="#929AAB"/>
</svg>
