<svg width="16" height="16" viewBox="0 0 16 16" fill="none" xmlns="http://www.w3.org/2000/svg">
<path d="M4.66718 11.3335L4.66728 10.8335C4.62308 10.8335 4.5807 10.8159 4.54945 10.7847L4.5494 10.7846L1.88278 8.118C1.85154 8.08675 1.83398 8.04437 1.83398 8.00017C1.83398 7.956 1.85152 7.91364 1.88273 7.88239C1.88275 7.88237 1.88276 7.88236 1.88278 7.88234L4.5494 5.21573L4.54945 5.21578L4.55549 5.20953C4.57086 5.19361 4.58925 5.18091 4.60959 5.17218C4.62992 5.16344 4.65179 5.15884 4.67392 5.15865C4.69605 5.15846 4.718 5.16268 4.73848 5.17106C4.75896 5.17944 4.77757 5.19181 4.79322 5.20746C4.80887 5.22311 4.82124 5.24172 4.82962 5.2622C4.838 5.28269 4.84222 5.30463 4.84203 5.32676C4.84184 5.34889 4.83724 5.37076 4.8285 5.39109L5.27166 5.58146L4.8285 5.3911C4.81977 5.41143 4.80707 5.42982 4.79115 5.44519L4.7911 5.44514L4.78496 5.45128L2.58962 7.64662L2.23607 8.00017L2.58962 8.35372L4.7849 10.549C4.78492 10.549 4.78494 10.549 4.78496 10.5491C4.80823 10.5724 4.82408 10.602 4.8305 10.6343C4.83693 10.6667 4.83363 10.7002 4.82101 10.7306C4.8084 10.7611 4.78705 10.7871 4.75964 10.8054C4.73224 10.8237 4.70003 10.8335 4.66707 10.8335L4.66718 11.3335ZM4.66718 11.3335C4.79901 11.3335 4.92787 11.2944 5.03748 11.2211C5.14709 11.1478 5.23251 11.0437 5.28296 10.9219C5.33341 10.8001 5.34661 10.6661 5.3209 10.5368C5.29519 10.4075 5.23171 10.2887 5.13851 10.1955L4.19584 11.1382C4.32084 11.2632 4.49038 11.3335 4.66718 11.3335ZM11.3338 11.3335L11.3337 10.8335C11.3779 10.8335 11.4203 10.8159 11.4516 10.7847L11.4516 10.7846L14.1182 8.118C14.1183 8.11799 14.1183 8.11797 14.1183 8.11795C14.1495 8.0867 14.167 8.04434 14.167 8.00017C14.167 7.956 14.1495 7.91364 14.1183 7.88239C14.1183 7.88237 14.1183 7.88236 14.1182 7.88234L11.4516 5.21573L11.4455 5.20958L11.4455 5.20953C11.4302 5.19361 11.4118 5.18091 11.3914 5.17218C11.3711 5.16344 11.3492 5.15884 11.3271 5.15865C11.305 5.15846 11.283 5.16268 11.2625 5.17106C11.2421 5.17944 11.2234 5.19181 11.2078 5.20746L10.8542 4.85391L11.2078 5.20746C11.1922 5.22311 11.1798 5.24172 11.1714 5.2622C11.163 5.28268 11.1588 5.30463 11.159 5.32676C11.1592 5.34889 11.1638 5.37076 11.1725 5.39109C11.1813 5.41143 11.1939 5.42982 11.2099 5.44519L11.2161 5.45123L11.2161 5.45128L13.4114 7.64662L13.7649 8.00017L13.4114 8.35372L11.2161 10.549C11.2161 10.549 11.2161 10.549 11.2161 10.5491C11.1928 10.5724 11.1769 10.602 11.1705 10.6343L10.6801 10.5368L11.1705 10.6343C11.1641 10.6667 11.1674 10.7002 11.18 10.7306L10.7181 10.9219L11.18 10.7306C11.1926 10.7611 11.214 10.7871 11.2414 10.8054C11.2688 10.8237 11.301 10.8335 11.334 10.8335L11.3338 11.3335ZM11.3338 11.3335C11.5106 11.3335 11.6802 11.2632 11.8052 11.1382L11.3338 11.3335ZM7.33341 12.8335H7.33328C7.30937 12.8335 7.28574 12.8284 7.26399 12.8185L7.05671 13.2735L7.26399 12.8185C7.24224 12.8086 7.22288 12.7941 7.20721 12.7761C7.19154 12.758 7.17994 12.7368 7.1732 12.7139C7.16645 12.6909 7.16471 12.6668 7.16811 12.6432L7.16815 12.6429L8.50144 3.30983C8.50145 3.30978 8.50146 3.30972 8.50147 3.30967C8.50778 3.26596 8.53118 3.22653 8.56653 3.20005C8.60193 3.17353 8.64641 3.16216 8.69018 3.16844C8.73396 3.17472 8.77345 3.19813 8.79997 3.23353C8.82648 3.26892 8.83785 3.3134 8.83157 3.35718L8.83153 3.35746L7.49824 12.6905C7.49255 12.7302 7.47276 12.7665 7.44248 12.7927C7.41221 12.819 7.37349 12.8335 7.33341 12.8335Z" fill="#929AAB" stroke="#929AAB"/>
</svg>
