<svg width="16" height="16" viewBox="0 0 16 16" fill="none" xmlns="http://www.w3.org/2000/svg">
<path d="M14 5.63158C14 4.82126 13.0244 2.89684 12.7256 2.32653C12.6738 2.22758 12.5976 2.1451 12.5052 2.08766C12.4127 2.03023 12.3073 1.99996 12.2 2H3.8C3.6937 1.99995 3.5893 2.02964 3.49747 2.08601C3.40565 2.14239 3.3297 2.22343 3.2774 2.32084C2.978 2.87979 2 4.76947 2 5.63158C2.00026 5.90739 2.05356 6.18029 2.15667 6.43385C2.25979 6.6874 2.41059 6.91637 2.6 7.10695V13.3684C2.6 13.5359 2.66321 13.6966 2.77574 13.815C2.88826 13.9335 3.04087 14 3.2 14H4.4C4.55913 14 4.71174 13.9335 4.82426 13.815C4.93679 13.6966 5 13.5359 5 13.3684V9.57895H7.4V13.3684C7.4 13.5359 7.46321 13.6966 7.57574 13.815C7.68826 13.9335 7.84087 14 8 14H12.8C12.9591 14 13.1117 13.9335 13.2243 13.815C13.3368 13.6966 13.4 13.5359 13.4 13.3684V7.08042C13.5862 6.89281 13.7352 6.66812 13.8382 6.41939C13.9412 6.17067 13.9962 5.90288 14 5.63158ZM4.1546 3.26316H11.84C12.2543 4.00649 12.5769 4.80238 12.8 5.63158C12.7877 5.83671 12.7047 6.03007 12.5666 6.17541C12.4286 6.32075 12.2449 6.40809 12.05 6.42105C11.8512 6.42072 11.6606 6.33743 11.52 6.18945C11.3794 6.04147 11.3003 5.84086 11.3 5.63158C11.3 5.46407 11.2368 5.30343 11.1243 5.18499C11.0117 5.06654 10.8591 5 10.7 5C10.5409 5 10.3883 5.06654 10.2757 5.18499C10.1632 5.30343 10.1 5.46407 10.1 5.63158C10.1 5.84096 10.021 6.04177 9.88033 6.18982C9.73968 6.33788 9.54891 6.42105 9.35 6.42105C9.15109 6.42105 8.96032 6.33788 8.81967 6.18982C8.67902 6.04177 8.6 5.84096 8.6 5.63158C8.6 5.46407 8.53679 5.30343 8.42426 5.18499C8.31174 5.06654 8.15913 5 8 5C7.84087 5 7.68826 5.06654 7.57574 5.18499C7.46321 5.30343 7.4 5.46407 7.4 5.63158C7.4 5.84096 7.32098 6.04177 7.18033 6.18982C7.03968 6.33788 6.84891 6.42105 6.65 6.42105C6.45109 6.42105 6.26032 6.33788 6.11967 6.18982C5.97902 6.04177 5.9 5.84096 5.9 5.63158C5.9 5.46407 5.83679 5.30343 5.72426 5.18499C5.61174 5.06654 5.45913 5 5.3 5C5.14087 5 4.98826 5.06654 4.87574 5.18499C4.76321 5.30343 4.7 5.46407 4.7 5.63158C4.69968 5.84086 4.62056 6.04147 4.47998 6.18945C4.3394 6.33743 4.14881 6.42072 3.95 6.42105C3.75186 6.41843 3.56254 6.33442 3.42242 6.18692C3.28231 6.03943 3.20249 5.84015 3.2 5.63158C3.41255 4.79941 3.73382 4.00233 4.1546 3.26316ZM11.3 10.8421C11.3 10.9259 11.2684 11.0062 11.2121 11.0654C11.1559 11.1246 11.0796 11.1579 11 11.1579H9.2C9.12044 11.1579 9.04413 11.1246 8.98787 11.0654C8.93161 11.0062 8.9 10.9259 8.9 10.8421V8.94737C8.9 8.86362 8.93161 8.78329 8.98787 8.72407C9.04413 8.66485 9.12044 8.63158 9.2 8.63158H11C11.0796 8.63158 11.1559 8.66485 11.2121 8.72407C11.2684 8.78329 11.3 8.86362 11.3 8.94737V10.8421Z" fill="#929AAB"/>
</svg>
