<svg width="16" height="16" viewBox="0 0 16 16" fill="none" xmlns="http://www.w3.org/2000/svg">
<path d="M1.83398 5.1V4.5H2.50065V5.1H1.83398ZM1.83398 8.3V7.7H2.50065V8.3H1.83398ZM1.83398 11.5V10.9H2.50065V11.5H1.83398ZM13.834 5.1H5.50065C5.40581 5.1 5.31875 5.06364 5.25766 5.00499C5.19726 4.94701 5.16732 4.87283 5.16732 4.8C5.16732 4.72717 5.19726 4.65299 5.25766 4.59501C5.31875 4.53636 5.40581 4.5 5.50065 4.5H13.834C13.9288 4.5 14.0159 4.53636 14.077 4.59501C14.1374 4.65299 14.1673 4.72717 14.1673 4.8C14.1673 4.87283 14.1374 4.94701 14.077 5.00499C14.0159 5.06364 13.9288 5.1 13.834 5.1ZM13.834 8.3H5.50065C5.40581 8.3 5.31875 8.26364 5.25766 8.20499C5.19726 8.14701 5.16732 8.07283 5.16732 8C5.16732 7.92717 5.19726 7.85299 5.25766 7.79501C5.31875 7.73636 5.40581 7.7 5.50065 7.7H13.834C13.9288 7.7 14.0159 7.73636 14.077 7.79501C14.1374 7.85299 14.1673 7.92717 14.1673 8C14.1673 8.07283 14.1374 8.14701 14.077 8.20499C14.0159 8.26364 13.9288 8.3 13.834 8.3ZM13.834 11.5H5.50065C5.40581 11.5 5.31875 11.4636 5.25766 11.405C5.19726 11.347 5.16732 11.2728 5.16732 11.2C5.16732 11.1272 5.19726 11.053 5.25766 10.995L4.9114 10.6343L5.25766 10.995C5.31875 10.9364 5.40581 10.9 5.50065 10.9H13.834C13.9288 10.9 14.0159 10.9364 14.077 10.995C14.1374 11.053 14.1673 11.1272 14.1673 11.2C14.1673 11.2728 14.1374 11.347 14.077 11.405C14.0159 11.4636 13.9288 11.5 13.834 11.5Z" fill="#929AAB" stroke="#929AAB"/>
</svg>
