<svg width="10" height="10" viewBox="0 0 10 10" fill="none" xmlns="http://www.w3.org/2000/svg">
<path d="M3.89524 7.91683C3.7856 7.9168 3.67842 7.88262 3.58727 7.8186C3.49611 7.75458 3.42507 7.6636 3.38311 7.55715C3.34116 7.45071 3.33018 7.33358 3.35156 7.22058C3.37295 7.10758 3.42573 7.00378 3.50325 6.9223L5.32902 5.00374L3.50325 3.08518C3.45029 3.03144 3.40806 2.96715 3.379 2.89607C3.34994 2.82499 3.33465 2.74854 3.33401 2.67118C3.33337 2.59382 3.34739 2.5171 3.37527 2.4455C3.40315 2.37389 3.44432 2.30884 3.49638 2.25414C3.54843 2.19944 3.61034 2.15618 3.67848 2.12688C3.74662 2.09759 3.81962 2.08285 3.89324 2.08352C3.96686 2.08419 4.03961 2.10026 4.10726 2.1308C4.1749 2.16133 4.23608 2.20572 4.28723 2.26136L6.50499 4.59183C6.60893 4.70109 6.66732 4.84925 6.66732 5.00374C6.66732 5.15823 6.60893 5.3064 6.50499 5.41565L4.28723 7.74612C4.18327 7.85539 4.04227 7.9168 3.89524 7.91683Z" fill="#1A56DB"/>
</svg>
