<svg width="16" height="16" viewBox="0 0 16 16" fill="none" xmlns="http://www.w3.org/2000/svg">
<path d="M7.9995 9.33323C7.47208 9.33323 6.95651 9.17684 6.51798 8.88382C6.07945 8.5908 5.73766 8.17433 5.53582 7.68706C5.33399 7.19979 5.28118 6.66361 5.38407 6.14633C5.48697 5.62904 5.74094 5.15389 6.11388 4.78095C6.48682 4.40801 6.96198 4.15403 7.47926 4.05114C7.99654 3.94825 8.53272 4.00106 9.01999 4.20289C9.50726 4.40472 9.92374 4.74652 10.2168 5.18505C10.5098 5.62358 10.6662 6.13915 10.6662 6.66657C10.6662 7.37381 10.3852 8.05209 9.88512 8.55219C9.38502 9.05228 8.70674 9.33323 7.9995 9.33323ZM7.9995 5.33323C7.73579 5.33323 7.47801 5.41143 7.25874 5.55794C7.03947 5.70445 6.86858 5.91269 6.76766 6.15632C6.66674 6.39996 6.64034 6.66805 6.69179 6.92669C6.74323 7.18533 6.87022 7.42291 7.05669 7.60938C7.24316 7.79585 7.48074 7.92283 7.73938 7.97428C7.99802 8.02573 8.26611 7.99932 8.50975 7.89841C8.75338 7.79749 8.96162 7.62659 9.10813 7.40733C9.25464 7.18806 9.33283 6.93028 9.33283 6.66657C9.33283 6.31295 9.19236 5.97381 8.94231 5.72376C8.69226 5.47371 8.35312 5.33323 7.9995 5.33323Z" fill="#1F2A37"/>
<path d="M7.9995 14.6666C7.90107 14.6665 7.80387 14.6447 7.71489 14.6026C7.6259 14.5605 7.54734 14.4993 7.48483 14.4232L3.98817 10.1739C3.9215 10.0992 3.8455 10.0059 3.77083 9.90723L3.69083 9.8099C3.65978 9.77228 3.63296 9.73137 3.61083 9.6879C3.06172 8.89168 2.73946 7.96113 2.67856 6.99584C2.61765 6.03055 2.82039 5.06687 3.26507 4.20795C3.70975 3.34902 4.37964 2.62719 5.20302 2.11972C6.02641 1.61225 6.97229 1.33824 7.93944 1.32702C8.90658 1.3158 9.85857 1.56779 10.6935 2.05603C11.5284 2.54426 12.2149 3.25036 12.6794 4.09873C13.1439 4.94711 13.3689 5.90583 13.3304 6.87227C13.2919 7.83871 12.9913 8.77649 12.4608 9.58523C12.4391 9.63107 12.4118 9.67406 12.3795 9.71323L12.2948 9.81657C12.1757 9.97956 12.047 10.1354 11.9095 10.2832L8.51483 14.4199C8.45258 14.4966 8.37406 14.5586 8.28493 14.6012C8.1958 14.6439 8.09831 14.6662 7.9995 14.6666ZM4.78283 9.04123L4.81417 9.07923C4.88083 9.16923 4.94283 9.24057 5.00417 9.3099L7.9995 12.9499L10.9048 9.41123C11.0242 9.28267 11.1355 9.14686 11.2382 9.00457L11.2882 8.9439L11.3055 8.91657C11.7179 8.31193 11.9564 7.60576 11.9952 6.87493C12.0341 6.14409 11.8716 5.41662 11.5256 4.77171C11.1796 4.12681 10.6633 3.58919 10.0329 3.2174C9.40252 2.84561 8.68221 2.65389 7.9504 2.66312C7.2186 2.67236 6.50336 2.88219 5.88255 3.26977C5.26174 3.65735 4.75916 4.20782 4.42954 4.86125C4.09992 5.51469 3.95589 6.24603 4.01313 6.97565C4.07037 7.70527 4.32668 8.4052 4.75417 8.99923C4.76483 9.01346 4.77439 9.02746 4.78283 9.04123Z" fill="#1F2A37"/>
</svg>
