<svg width="20" height="20" viewBox="0 0 20 20" fill="none" xmlns="http://www.w3.org/2000/svg">
<path d="M10.8344 9.65671L10.4808 10.0103L10.8344 10.3638L15.2415 14.7709C15.3007 14.8335 15.3334 14.9166 15.3327 15.0029C15.3319 15.0903 15.2969 15.1739 15.2351 15.2357C15.1732 15.2975 15.0896 15.3326 15.0022 15.3333C14.916 15.3341 14.8328 15.3014 14.7702 15.2421L10.3631 10.835L10.0096 10.4815L9.65604 10.835L5.2452 15.2459L5.24515 15.2458L5.23911 15.2521C5.20836 15.2839 5.17158 15.3093 5.13091 15.3268C5.09024 15.3442 5.0465 15.3534 5.00225 15.3538C4.95799 15.3542 4.91409 15.3458 4.87313 15.329C4.83216 15.3123 4.79495 15.2875 4.76365 15.2562L4.41203 15.6078L4.76365 15.2562C4.73235 15.2249 4.7076 15.1877 4.69084 15.1467C4.67408 15.1058 4.66564 15.0619 4.66603 15.0176C4.66641 14.9733 4.67561 14.9296 4.69308 14.8889L4.23434 14.6919L4.69308 14.8889C4.71055 14.8483 4.73594 14.8115 4.76778 14.7807L4.76783 14.7808L4.77398 14.7746L9.18481 10.3638L9.53836 10.0103L9.18481 9.65671L4.77774 5.24964C4.71849 5.18704 4.68576 5.10388 4.68651 5.0176C4.68727 4.93021 4.72232 4.8466 4.78413 4.7848C4.84593 4.723 4.92953 4.68794 5.01693 4.68718C5.10321 4.68643 5.18637 4.71916 5.24897 4.77841L9.65604 9.18548L10.0096 9.53903L10.3631 9.18548L14.774 4.77465L14.774 4.7747L14.7801 4.76845C14.8108 4.73661 14.8476 4.71122 14.8883 4.69375C14.9289 4.67628 14.9727 4.66708 15.0169 4.6667C15.0612 4.66631 15.1051 4.67475 15.146 4.69151L15.3354 4.22874L15.1461 4.69151C15.187 4.70827 15.2242 4.73302 15.2555 4.76432C15.2868 4.79562 15.3116 4.83283 15.3283 4.8738C15.3451 4.91476 15.3535 4.95866 15.3532 5.00292C15.3528 5.04717 15.3436 5.09091 15.3261 5.13158C15.3086 5.17225 15.2832 5.20904 15.2514 5.23978L15.2513 5.23973L15.2452 5.24587L10.8344 9.65671ZM4.42042 14.4211C4.34083 14.498 4.27735 14.5899 4.23367 14.6916C4.19 14.7933 4.16701 14.9026 4.16605 15.0133C4.16509 15.1239 4.18617 15.2336 4.22807 15.3361C4.26997 15.4385 4.33185 15.5315 4.41009 15.6098C4.48834 15.688 4.58138 15.7499 4.68379 15.7918C4.78621 15.8337 4.89594 15.8548 5.00659 15.8538C5.11724 15.8528 5.22659 15.8299 5.32826 15.7862C5.42993 15.7425 5.52188 15.679 5.59876 15.5994L4.42042 14.4211Z" stroke="#FE3A30"/>
</svg>
