<svg width="16" height="16" viewBox="0 0 16 16" fill="none" xmlns="http://www.w3.org/2000/svg">
<path d="M10.6742 6.66648C10.4974 6.66645 10.3279 6.59618 10.2029 6.47115L8.00754 4.27582L5.81221 6.47115C5.75071 6.53482 5.67715 6.58561 5.59581 6.62055C5.51447 6.65549 5.42699 6.67388 5.33848 6.67465C5.24996 6.67542 5.16217 6.65855 5.08024 6.62503C4.99831 6.59151 4.92387 6.54201 4.86128 6.47941C4.79868 6.41682 4.74918 6.34238 4.71566 6.26045C4.68214 6.17852 4.66527 6.09074 4.66604 6.00222C4.66681 5.9137 4.6852 5.82622 4.72014 5.74488C4.75508 5.66354 4.80587 5.58998 4.86954 5.52848L7.53621 2.86182C7.66123 2.73684 7.83076 2.66663 8.00754 2.66663C8.18432 2.66663 8.35386 2.73684 8.47887 2.86182L11.1455 5.52848C11.2387 5.62172 11.3022 5.74049 11.3279 5.8698C11.3536 5.9991 11.3404 6.13312 11.29 6.25492C11.2395 6.37672 11.1541 6.48083 11.0445 6.55408C10.9349 6.62734 10.806 6.66646 10.6742 6.66648Z" fill="#929AAB"/>
<path d="M8.00754 13.3331C7.83074 13.3331 7.6612 13.2628 7.53621 13.1378L4.86954 10.4711C4.80587 10.4097 4.75508 10.3361 4.72014 10.2548C4.6852 10.1734 4.66681 10.0859 4.66604 9.99742C4.66527 9.9089 4.68214 9.82111 4.71566 9.73918C4.74918 9.65725 4.79868 9.58282 4.86128 9.52022C4.92387 9.45762 4.99831 9.40812 5.08024 9.3746C5.16217 9.34108 5.24996 9.32421 5.33848 9.32498C5.42699 9.32575 5.51447 9.34414 5.59581 9.37908C5.67715 9.41402 5.75071 9.46481 5.81221 9.52848L8.00754 11.7238L10.2029 9.52848C10.3286 9.40704 10.497 9.33985 10.6718 9.34137C10.8466 9.34289 11.0138 9.413 11.1374 9.5366C11.261 9.66021 11.3311 9.82742 11.3327 10.0022C11.3342 10.177 11.267 10.3454 11.1455 10.4711L8.47887 13.1378C8.35388 13.2628 8.18434 13.3331 8.00754 13.3331Z" fill="#929AAB"/>
</svg>
