<svg width="16" height="16" viewBox="0 0 16 16" fill="none" xmlns="http://www.w3.org/2000/svg">
<path d="M13.334 9.1965H11.634L10.3007 10.564H13.334V13.2991H2.66732V10.564H5.70065L4.36732 9.1965H2.66732C2.3137 9.1965 1.97456 9.34058 1.72451 9.59704C1.47446 9.8535 1.33398 10.2013 1.33398 10.564V13.2991C1.33398 13.6618 1.47446 14.0096 1.72451 14.266C1.97456 14.5225 2.3137 14.6666 2.66732 14.6666H13.334C13.6876 14.6666 14.0267 14.5225 14.2768 14.266C14.5268 14.0096 14.6673 13.6618 14.6673 13.2991V10.564C14.6673 10.2013 14.5268 9.8535 14.2768 9.59704C14.0267 9.34058 13.6876 9.1965 13.334 9.1965Z" fill="#1F2A37"/>
<path d="M7.52865 10.0211C7.59058 10.0848 7.66415 10.1353 7.74514 10.1698C7.82613 10.2043 7.91296 10.222 8.00065 10.222C8.08834 10.222 8.17517 10.2043 8.25616 10.1698C8.33716 10.1353 8.41072 10.0848 8.47265 10.0211L11.1393 7.28607C11.2608 7.15711 11.328 6.98439 11.3264 6.80511C11.3249 6.62583 11.2548 6.45434 11.1312 6.32756C11.0076 6.20079 10.8404 6.12888 10.6656 6.12732C10.4908 6.12576 10.3224 6.19468 10.1967 6.31923L8.66732 7.88778V2.01701C8.66732 1.83567 8.59708 1.66175 8.47206 1.53352C8.34703 1.40529 8.17746 1.33325 8.00065 1.33325C7.82384 1.33325 7.65427 1.40529 7.52925 1.53352C7.40422 1.66175 7.33398 1.83567 7.33398 2.01701V7.88778L5.80532 6.31992C5.74382 6.25461 5.67026 6.20252 5.58892 6.16669C5.50758 6.13085 5.4201 6.11199 5.33159 6.1112C5.24307 6.11041 5.15528 6.12771 5.07335 6.16209C4.99142 6.19647 4.91698 6.24724 4.85439 6.31144C4.79179 6.37564 4.74229 6.45199 4.70877 6.53602C4.67525 6.62005 4.65838 6.71009 4.65915 6.80088C4.65992 6.89167 4.67831 6.98139 4.71325 7.06481C4.74819 7.14823 4.79898 7.22368 4.86265 7.28676L7.52865 10.0211Z" fill="#1F2A37"/>
<path d="M11.334 12.6153C11.7022 12.6153 12.0007 12.3092 12.0007 11.9315C12.0007 11.5539 11.7022 11.2478 11.334 11.2478C10.9658 11.2478 10.6673 11.5539 10.6673 11.9315C10.6673 12.3092 10.9658 12.6153 11.334 12.6153Z" fill="#1F2A37"/>
</svg>
