<svg width="16" height="16" viewBox="0 0 16 16" fill="none" xmlns="http://www.w3.org/2000/svg">
<path d="M8.00065 1.33337C6.68211 1.33337 5.39318 1.72437 4.29685 2.45691C3.20052 3.18945 2.34604 4.23064 1.84146 5.44882C1.33687 6.66699 1.20485 8.00743 1.46209 9.30064C1.71932 10.5938 2.35426 11.7817 3.28661 12.7141C4.21896 13.6464 5.40684 14.2814 6.70005 14.5386C7.99326 14.7958 9.3337 14.6638 10.5519 14.1592C11.77 13.6546 12.8112 12.8002 13.5438 11.7038C14.2763 10.6075 14.6673 9.31858 14.6673 8.00004C14.6654 6.23252 13.9624 4.53796 12.7126 3.28814C11.4627 2.03832 9.76817 1.33532 8.00065 1.33337ZM7.66732 4.00004C7.8651 4.00004 8.05844 4.05869 8.22289 4.16857C8.38734 4.27845 8.51551 4.43463 8.5912 4.61736C8.66689 4.80008 8.68669 5.00115 8.6481 5.19513C8.60952 5.38911 8.51428 5.56729 8.37443 5.70715C8.23457 5.847 8.05639 5.94224 7.86241 5.98082C7.66843 6.01941 7.46736 5.99961 7.28464 5.92392C7.10191 5.84823 6.94573 5.72006 6.83585 5.55561C6.72597 5.39116 6.66732 5.19782 6.66732 5.00004C6.66732 4.73482 6.77268 4.48047 6.96021 4.29293C7.14775 4.1054 7.4021 4.00004 7.66732 4.00004ZM9.33399 11.3334H6.66732C6.49051 11.3334 6.32094 11.2631 6.19592 11.1381C6.07089 11.0131 6.00065 10.8435 6.00065 10.6667C6.00065 10.4899 6.07089 10.3203 6.19592 10.1953C6.32094 10.0703 6.49051 10 6.66732 10H7.33399V8.00004H6.66732C6.49051 8.00004 6.32094 7.9298 6.19592 7.80478C6.07089 7.67975 6.00065 7.51018 6.00065 7.33337C6.00065 7.15656 6.07089 6.98699 6.19592 6.86197C6.32094 6.73694 6.49051 6.66671 6.66732 6.66671H8.00065C8.17746 6.66671 8.34703 6.73694 8.47206 6.86197C8.59708 6.98699 8.66732 7.15656 8.66732 7.33337V10H9.33399C9.5108 10 9.68037 10.0703 9.80539 10.1953C9.93041 10.3203 10.0007 10.4899 10.0007 10.6667C10.0007 10.8435 9.93041 11.0131 9.80539 11.1381C9.68037 11.2631 9.5108 11.3334 9.33399 11.3334Z" fill="white"/>
</svg>
