<svg width="16" height="16" viewBox="0 0 16 16" fill="none" xmlns="http://www.w3.org/2000/svg">
<path d="M7.69671 10.0443L7.69677 10.0443C7.77624 10.1199 7.88921 10.1665 8.01202 10.1666L7.69671 10.0443ZM7.69671 10.0443L3.96338 6.49596L3.96343 6.49591M7.69671 10.0443L3.96343 6.49591M3.96343 6.49591L3.95704 6.49004M3.96343 6.49591L3.95704 6.49004M3.95704 6.49004C3.91667 6.45298 3.88596 6.41005 3.86538 6.36452C3.84484 6.31906 3.83444 6.27118 3.834 6.22346C3.83356 6.17574 3.84309 6.12778 3.86274 6.08212C3.88243 6.03638 3.91225 5.99309 3.95181 5.95549C3.99142 5.91784 4.03992 5.88678 4.09511 5.86532C4.15032 5.84385 4.21029 5.83276 4.2713 5.83327C4.33231 5.83377 4.392 5.84584 4.4467 5.86818C4.50137 5.8905 4.54916 5.92227 4.58795 5.96045L4.5879 5.9605M3.95704 6.49004L4.5879 5.9605M4.5879 5.9605L4.5942 5.96649M4.5879 5.9605L4.5942 5.96649M4.5942 5.96649L7.66766 8.88761L8.01212 9.215M4.5942 5.96649L8.01212 9.215M8.01212 9.215L8.35658 8.88761M8.01212 9.215L8.35658 8.88761M8.35658 8.88761L11.4263 5.97006C11.5064 5.89778 11.6178 5.85408 11.738 5.85507C11.8594 5.85607 11.9709 5.90256 12.0495 5.97729C12.1273 6.05124 12.1665 6.1458 12.1673 6.23899C12.1681 6.33113 12.1316 6.425 12.0571 6.49954L8.32753 10.0443L8.32747 10.0443M8.35658 8.88761L8.32747 10.0443M8.32747 10.0443C8.248 10.1199 8.13503 10.1665 8.01222 10.1666L8.32747 10.0443Z" fill="#24282D" stroke="#24282D"/>
</svg>
